<svg width="30" height="22" viewBox="0 0 30 22" fill="none" xmlns="http://www.w3.org/2000/svg">
<path d="M7.01501 12.4781C7.0184 12.5459 7.00798 12.6136 6.98438 12.6771C6.96077 12.7407 6.92448 12.7988 6.87771 12.8479C6.83094 12.8971 6.77466 12.9361 6.71231 12.9628C6.64996 12.9895 6.58283 13.0032 6.51501 13.0031H1.00001C0.774308 13.0035 0.555124 12.9274 0.378105 12.7874C0.201086 12.6474 0.0766438 12.4516 0.0250138 12.2319C-0.00713503 12.0815 -0.00565299 11.9258 0.0293538 11.7761C0.0643607 11.6263 0.132027 11.4862 0.227514 11.3656C1.10977 10.1956 2.28038 9.27436 3.62501 8.69187C3.03467 8.15362 2.5819 7.48176 2.30461 6.73254C2.02732 5.98333 1.9336 5.17857 2.03128 4.38568C2.12897 3.5928 2.41522 2.83486 2.86606 2.17535C3.31691 1.51584 3.91922 0.973961 4.62255 0.595098C5.32588 0.216234 6.10976 0.0114158 6.90852 -0.00220299C7.70729 -0.0158218 8.49769 0.162155 9.21353 0.516822C9.92937 0.871489 10.5498 1.39252 11.0229 2.03628C11.4959 2.68003 11.8079 3.42777 11.9325 4.21687C11.9486 4.32298 11.9296 4.43145 11.8784 4.52577C11.8272 4.62009 11.7465 4.69509 11.6488 4.73937C10.2618 5.38059 9.0871 6.40517 8.2634 7.69222C7.4397 8.97926 7.00133 10.4751 7.00001 12.0031C7.00001 12.1631 7.00001 12.3206 7.01501 12.4781ZM29.765 11.3644C28.8848 10.1957 27.7169 9.27497 26.375 8.69187C26.9654 8.15362 27.4181 7.48176 27.6954 6.73254C27.9727 5.98333 28.0664 5.17857 27.9687 4.38568C27.8711 3.5928 27.5848 2.83486 27.134 2.17535C26.6831 1.51584 26.0808 0.973961 25.3775 0.595098C24.6741 0.216234 23.8903 0.0114158 23.0915 -0.00220299C22.2927 -0.0158218 21.5023 0.162155 20.7865 0.516822C20.0707 0.871489 19.4502 1.39252 18.9772 2.03628C18.5041 2.68003 18.1922 3.42777 18.0675 4.21687C18.0514 4.32298 18.0704 4.43145 18.1216 4.52577C18.1729 4.62009 18.2535 4.69509 18.3513 4.73937C19.7383 5.38059 20.9129 6.40517 21.7366 7.69222C22.5603 8.97926 22.9987 10.4751 23 12.0031C23 12.1631 23 12.3206 22.985 12.4781C22.9816 12.5459 22.992 12.6136 23.0157 12.6771C23.0393 12.7407 23.0755 12.7988 23.1223 12.8479C23.1691 12.8971 23.2254 12.9361 23.2877 12.9628C23.3501 12.9895 23.4172 13.0032 23.485 13.0031H29C29.2257 13.0035 29.4449 12.9274 29.6219 12.7874C29.7989 12.6474 29.9234 12.4516 29.975 12.2319C30.0074 12.0812 30.0059 11.9252 29.9706 11.7752C29.9354 11.6252 29.8673 11.4849 29.7713 11.3644H29.765ZM18.64 16.7619C19.6357 15.9993 20.3674 14.944 20.7323 13.7441C21.0972 12.5442 21.0769 11.2601 20.6744 10.0724C20.2718 8.88459 19.5071 7.85282 18.4879 7.12208C17.4686 6.39133 16.246 5.99834 14.9919 5.99834C13.7377 5.99834 12.5151 6.39133 11.4959 7.12208C10.4766 7.85282 9.71198 8.88459 9.30941 10.0724C8.90683 11.2601 8.88657 12.5442 9.25147 13.7441C9.61636 14.944 10.3481 15.9993 11.3438 16.7619C9.57693 17.5274 8.1016 18.8385 7.13376 20.5031C7.04599 20.6552 6.99978 20.8276 6.99979 21.0032C6.9998 21.1787 7.04603 21.3512 7.13382 21.5032C7.22161 21.6552 7.34788 21.7815 7.49993 21.8692C7.65199 21.957 7.82446 22.0032 8.00001 22.0031H22C22.1756 22.0032 22.348 21.957 22.5001 21.8692C22.6521 21.7815 22.7784 21.6552 22.8662 21.5032C22.954 21.3512 23.0002 21.1787 23.0002 21.0032C23.0002 20.8276 22.954 20.6552 22.8663 20.5031C21.8964 18.8374 20.4183 17.5262 18.6488 16.7619H18.64Z" fill="url(#paint0_linear_4113_22)"/>
<defs>
<linearGradient id="paint0_linear_4113_22" x1="0.00195312" y1="11.0001" x2="29.9982" y2="11.0001" gradientUnits="userSpaceOnUse">
<stop stop-color="#FC4A1A"/>
<stop offset="1" stop-color="#F7B733"/>
</linearGradient>
</defs>
</svg>
